<svg width="1280" height="190" viewBox="0 0 1280 190" fill="none" xmlns="http://www.w3.org/2000/svg">
<path d="M666.883 73.4971C348.554 216.643 89.0563 133.141 0 73.4971V189.583H1280V97.3731C1208 29.5021 985.212 -69.6489 666.883 73.4971Z" fill="#1B85AF"/>
<path d="M344.648 27.2263C350.483 27.2263 356.122 29.1218 360.53 32.5642C364.937 36.0067 367.818 40.7651 368.641 45.9656V46.6746C373.15 47.1453 377.416 48.764 380.939 51.3396C384.462 53.9152 387.097 57.3419 388.535 61.2175C389.972 65.093 390.151 69.2571 389.053 73.2214C387.955 77.1859 385.625 80.7869 382.334 83.6013C385.085 85.7383 387.266 88.4048 388.717 91.4031C390.168 94.4014 390.852 97.6553 390.717 100.924C390.583 104.192 389.634 107.391 387.941 110.285C386.248 113.179 383.853 115.693 380.935 117.641C378.017 119.589 374.65 120.922 371.083 121.541C367.515 122.159 363.838 122.048 360.325 121.215C356.811 120.381 353.551 118.848 350.785 116.727C350.418 116.446 350.063 116.155 349.716 115.855L349.899 154.213H336.794L336.62 117.743C334.15 119.403 331.35 120.63 328.362 121.347C324.834 122.194 321.138 122.312 317.552 121.693C314.491 121.164 311.577 120.108 308.967 118.59C306.404 120.108 303.541 121.166 300.533 121.694C297.015 122.312 293.39 122.194 289.928 121.349C286.659 120.551 283.616 119.122 281 117.163V152.682H267.495V117.164C264.879 119.123 261.837 120.551 258.568 121.349C255.107 122.194 251.481 122.312 247.963 121.694C244.445 121.076 241.125 119.738 238.25 117.78C235.376 115.822 233.022 113.294 231.365 110.385C229.707 107.478 228.789 104.264 228.678 100.985C228.567 97.7064 229.267 94.4472 230.725 91.4509C232.183 88.4546 234.362 85.7985 237.098 83.6814C233.843 80.858 231.542 77.2384 230.467 73.2527C229.393 69.2671 229.59 65.0829 231.036 61.197C232.482 57.311 235.115 53.8857 238.624 51.3298C242.132 48.774 246.368 47.1945 250.829 46.7781C250.8 46.5611 250.8 46.3417 250.829 46.1248C251.589 40.8945 254.398 36.095 258.733 32.6189C263.068 29.1428 268.635 27.2263 274.397 27.2263C280.159 27.2264 285.725 29.1429 290.06 32.6189C294.395 36.095 297.205 40.8944 297.965 46.1248C297.998 46.3597 297.998 46.5979 297.965 46.8328C301.891 47.2497 305.628 48.5689 308.835 50.657C312.296 48.3825 316.379 46.9864 320.655 46.6208V45.9656C321.478 40.7652 324.358 36.0067 328.765 32.5642C333.173 29.1217 338.813 27.2263 344.648 27.2263Z" fill="#1B85AF"/>
</svg>
