<svg width="700" height="104" viewBox="0 0 700 104" fill="none" xmlns="http://www.w3.org/2000/svg">
<path d="M364.702 40.057C190.616 118.34 48.7027 72.6749 0 40.057V103.542H700V53.1142C660.623 15.9973 538.788 -38.2259 364.702 40.057Z" fill="#1B85AF"/>
<path d="M188.479 14.7527C191.671 14.7527 194.755 15.7891 197.165 17.6716C199.575 19.5542 201.15 22.1567 201.601 25.0007V25.3884C204.066 25.6459 206.399 26.5307 208.326 27.9392C210.253 29.3478 211.694 31.2221 212.479 33.3416C213.265 35.4609 213.364 37.738 212.764 39.906C212.163 42.0741 210.888 44.0436 209.089 45.5828C210.593 46.7515 211.786 48.2096 212.58 49.8494C213.374 51.4889 213.747 53.2682 213.674 55.0554C213.6 56.8428 213.081 58.593 212.155 60.1755C211.229 61.7579 209.92 63.1326 208.324 64.198C206.728 65.2635 204.887 65.9925 202.936 66.3308C200.985 66.6691 198.974 66.6077 197.053 66.1521C195.131 65.6965 193.349 64.8577 191.836 63.698C191.635 63.544 191.44 63.3845 191.25 63.2205L191.351 84.198H184.185L184.089 64.2537C182.739 65.1616 181.207 65.8332 179.573 66.2253C177.644 66.6884 175.622 66.7525 173.661 66.4138C171.987 66.1246 170.394 65.5467 168.967 64.7166C167.565 65.5473 165.999 66.1257 164.354 66.4148C162.43 66.7527 160.447 66.6884 158.555 66.2263C156.767 65.7898 155.102 65.0086 153.672 63.9373V83.3621H146.286V63.9373C144.856 65.0085 143.192 65.7898 141.404 66.2263C139.511 66.6885 137.529 66.7528 135.604 66.4148C133.681 66.0768 131.865 65.345 130.293 64.2742C128.721 63.2034 127.434 61.8214 126.527 60.2312C125.621 58.6408 125.118 56.8827 125.058 55.0896C124.997 53.2966 125.38 51.5143 126.178 49.8757C126.975 48.2372 128.166 46.7845 129.662 45.6267C127.882 44.0827 126.624 42.1032 126.036 39.9236C125.449 37.744 125.557 35.4559 126.348 33.3308C127.138 31.2056 128.578 29.3321 130.497 27.9343C132.416 26.5366 134.733 25.6728 137.172 25.4451C137.156 25.3265 137.156 25.2063 137.172 25.0876C137.588 22.2275 139.124 19.6028 141.494 17.7019C143.865 15.8009 146.909 14.7527 150.061 14.7527C153.212 14.7527 156.255 15.8011 158.626 17.7019C160.997 19.6028 162.533 22.2274 162.949 25.0876C162.967 25.2161 162.967 25.3469 162.949 25.4753C165.096 25.7033 167.139 26.4253 168.894 27.5671C170.786 26.3229 173.019 25.5591 175.358 25.3591V25.0007C175.809 22.1568 177.384 19.5542 179.794 17.6716C182.204 15.7891 185.288 14.7527 188.479 14.7527Z" fill="#1B85AF"/>
</svg>
