<svg width="33" height="50" viewBox="0 0 33 50" fill="none" xmlns="http://www.w3.org/2000/svg">
<path d="M29.8517 22.2124C31.0147 21.1035 31.8386 19.6848 32.2268 18.1228C32.615 16.5607 32.5513 14.92 32.0433 13.3929C31.5353 11.8658 30.604 10.5158 29.3585 9.50092C28.1131 8.48608 26.6052 7.84855 25.0115 7.66307C25.0115 7.66307 25.0115 7.49114 25.0115 7.38369C24.7205 5.33458 23.7025 3.45963 22.1445 2.10321C20.5865 0.746794 18.5931 0 16.5304 0C14.4677 0 12.4743 0.746794 10.9163 2.10321C9.35829 3.45963 8.3403 5.33458 8.04932 7.38369C8.04932 7.38369 8.04932 7.55561 8.04932 7.64158C6.43693 7.79522 4.90267 8.41125 3.62971 9.41613C2.35675 10.421 1.39889 11.7723 0.870486 13.3086C0.342079 14.8449 0.265455 16.5014 0.649761 18.0802C1.03407 19.659 1.86306 21.0935 3.03778 22.2124C2.05184 23.0483 1.2669 24.097 0.741582 25.2801C0.216266 26.4632 -0.0358365 27.7501 0.00410254 29.0447C0.0440416 30.3393 0.374987 31.6081 0.972226 32.7563C1.56946 33.9045 2.41755 34.9024 3.45313 35.6756C4.4887 36.4487 5.68499 36.977 6.95262 37.2211C8.22024 37.4651 9.52645 37.4186 10.7736 37.0849C12.0208 36.7512 13.1767 36.1391 14.155 35.2942C15.1334 34.4493 15.9088 33.3935 16.4233 32.2056C16.9441 33.3836 17.7221 34.4291 18.6998 35.2646C19.6776 36.1001 20.83 36.7044 22.0719 37.0327C23.3138 37.361 24.6133 37.4049 25.8744 37.1612C27.1354 36.9174 28.3258 36.3923 29.3573 35.6247C30.3888 34.857 31.2352 33.8665 31.8337 32.7263C32.4322 31.5861 32.7676 30.3255 32.8151 29.0377C32.8626 27.7499 32.6209 26.4679 32.1079 25.2864C31.595 24.105 30.8239 23.0544 29.8517 22.2124Z" fill="#1B85AF"/>
<path d="M18.4152 50.0001H13.5108L13.3608 16.7107H18.2653L18.4152 50.0001Z" fill="#1B85AF"/>
</svg>
