<svg width="50" height="50" viewBox="0 0 50 50" fill="none" xmlns="http://www.w3.org/2000/svg">
<path d="M29.8517 22.2124C31.0147 21.1035 31.8386 19.6848 32.2268 18.1228C32.615 16.5607 32.5513 14.92 32.0433 13.3929C31.5353 11.8658 30.604 10.5158 29.3585 9.50092C28.1131 8.48608 26.6052 7.84855 25.0115 7.66307C25.0115 7.66307 25.0115 7.49114 25.0115 7.38369C24.7205 5.33458 23.7025 3.45963 22.1445 2.10321C20.5865 0.746794 18.5931 0 16.5304 0C14.4677 0 12.4743 0.746794 10.9163 2.10321C9.35829 3.45963 8.3403 5.33458 8.04932 7.38369C8.04932 7.38369 8.04932 7.55561 8.04932 7.64158C6.43693 7.79522 4.90267 8.41125 3.62971 9.41613C2.35675 10.421 1.39889 11.7723 0.870486 13.3086C0.342079 14.8449 0.265455 16.5014 0.649761 18.0802C1.03407 19.659 1.86306 21.0935 3.03778 22.2124C2.05184 23.0483 1.2669 24.097 0.741582 25.2801C0.216266 26.4632 -0.0358365 27.7501 0.00410254 29.0447C0.0440416 30.3393 0.374987 31.6081 0.972226 32.7563C1.56946 33.9045 2.41755 34.9024 3.45313 35.6756C4.4887 36.4487 5.68499 36.977 6.95262 37.2211C8.22024 37.4651 9.52645 37.4186 10.7736 37.0849C12.0208 36.7512 13.1767 36.1391 14.155 35.2942C15.1334 34.4493 15.9088 33.3935 16.4233 32.2056C16.9441 33.3836 17.7221 34.4291 18.6998 35.2646C19.6776 36.1001 20.83 36.7044 22.0719 37.0327C23.3138 37.361 24.6133 37.4049 25.8744 37.1612C27.1354 36.9174 28.3258 36.3923 29.3573 35.6247C30.3888 34.857 31.2352 33.8665 31.8337 32.7263C32.4322 31.5861 32.7676 30.3255 32.8151 29.0377C32.8626 27.7499 32.6209 26.4679 32.1079 25.2864C31.595 24.105 30.8239 23.0544 29.8517 22.2124Z" fill="#1B85AF"/>
<path d="M18.415 50.0001H13.5105L13.3606 16.7107H18.2651L18.415 50.0001Z" fill="#1B85AF"/>
<path d="M46.8971 22.2124C48.0602 21.1035 48.8841 19.6848 49.2722 18.1228C49.6604 16.5607 49.5967 14.92 49.0887 13.3929C48.5807 11.8658 47.6494 10.5158 46.4039 9.50092C45.1585 8.48608 43.6506 7.84855 42.0569 7.66307C42.0569 7.66307 42.0569 7.49114 42.0569 7.38369C41.7659 5.33458 40.7479 3.45963 39.1899 2.10321C37.6319 0.746794 35.6385 0 33.5758 0C31.5131 0 29.5197 0.746794 27.9617 2.10321C26.4037 3.45963 25.3857 5.33458 25.0947 7.38369C25.0947 7.38369 25.0947 7.55561 25.0947 7.64158C23.4823 7.79522 21.9481 8.41125 20.6751 9.41613C19.4022 10.421 18.4443 11.7723 17.9159 13.3086C17.3875 14.8449 17.3109 16.5014 17.6952 18.0802C18.0795 19.659 18.9085 21.0935 20.0832 22.2124C19.0973 23.0483 18.3123 24.097 17.787 25.2801C17.2617 26.4632 17.0096 27.7501 17.0495 29.0447C17.0895 30.3393 17.4204 31.6081 18.0176 32.7563C18.6149 33.9045 19.463 34.9024 20.4985 35.6756C21.5341 36.4487 22.7304 36.977 23.998 37.2211C25.2657 37.4651 26.5719 37.4186 27.819 37.0849C29.0662 36.7512 30.2221 36.1391 31.2005 35.2942C32.1788 34.4493 32.9542 33.3935 33.4687 32.2056C33.9895 33.3836 34.7675 34.4291 35.7452 35.2646C36.723 36.1001 37.8754 36.7044 39.1173 37.0327C40.3592 37.361 41.6587 37.4049 42.9198 37.1612C44.1808 36.9174 45.3712 36.3923 46.4027 35.6247C47.4342 34.857 48.2806 33.8665 48.8791 32.7263C49.4776 31.5861 49.813 30.3255 49.8605 29.0377C49.908 27.7499 49.6663 26.4679 49.1533 25.2864C48.6404 24.105 47.8693 23.0544 46.8971 22.2124Z" fill="#1B85AF"/>
<path d="M35.4606 50.0001H30.5562L30.4062 16.7107H35.3107L35.4606 50.0001Z" fill="#1B85AF"/>
</svg>
