<svg width="36" height="36" viewBox="0 0 36 36" fill="none" xmlns="http://www.w3.org/2000/svg">
<path d="M4.66667 28C4.19445 28 3.79889 27.84 3.48001 27.52C3.16112 27.2 3.00112 26.8044 3.00001 26.3333C2.99889 25.8622 3.15889 25.4666 3.48001 25.1466C3.80112 24.8266 4.19667 24.6666 4.66667 24.6666H31.3333C31.8055 24.6666 32.2017 24.8266 32.5217 25.1466C32.8417 25.4666 33.0011 25.8622 33 26.3333C32.9989 26.8044 32.8389 27.2005 32.52 27.5216C32.2011 27.8428 31.8055 28.0022 31.3333 28H4.66667ZM4.66667 19.6667C4.19445 19.6667 3.79889 19.5067 3.48001 19.1867C3.16112 18.8667 3.00112 18.4711 3.00001 18C2.99889 17.5289 3.15889 17.1333 3.48001 16.8133C3.80112 16.4933 4.19667 16.3333 4.66667 16.3333H31.3333C31.8055 16.3333 32.2017 16.4933 32.5217 16.8133C32.8417 17.1333 33.0011 17.5289 33 18C32.9989 18.4711 32.8389 18.8672 32.52 19.1883C32.2011 19.5094 31.8055 19.6689 31.3333 19.6667H4.66667ZM4.66667 11.3333C4.19445 11.3333 3.79889 11.1733 3.48001 10.8533C3.16112 10.5333 3.00112 10.1378 3.00001 9.66666C2.99889 9.19555 3.15889 8.8 3.48001 8.48C3.80112 8.16 4.19667 8 4.66667 8H31.3333C31.8055 8 32.2017 8.16 32.5217 8.48C32.8417 8.8 33.0011 9.19555 33 9.66666C32.9989 10.1378 32.8389 10.5339 32.52 10.855C32.2011 11.1761 31.8055 11.3356 31.3333 11.3333H4.66667Z" fill="#9A9A9A"/>
</svg>
