<svg width="98" height="35" viewBox="0 0 98 35" fill="none" xmlns="http://www.w3.org/2000/svg">
<path d="M2.92709 18.4654C0.972286 18.4654 0 17.4384 0 15.292V6.34683H1.94457V10.0235H8.60729V6.34683H10.5212V10.0235H17.235V6.34683H19.1796V18.4654H2.92709ZM24.9826 21.8339C25.4021 21.8208 25.8189 21.9051 26.2005 22.0804C26.517 22.2292 26.7941 22.4509 27.0091 22.7274C27.2224 22.9978 27.3791 23.3087 27.4696 23.6414C27.5704 23.9744 27.6221 24.3204 27.6231 24.6684V29.1564H3.48999V31.1077C3.48999 31.4158 3.48999 31.6931 3.48999 31.9498C3.49366 32.1809 3.56483 32.4059 3.69469 32.5968C3.82529 32.7879 4.01646 32.9291 4.23712 32.9974C4.57016 33.0898 4.91519 33.1313 5.26058 33.1206H27.6231V34.9692H4.14501C3.72553 34.9823 3.3087 34.898 2.92709 34.7227C2.61666 34.5688 2.34136 34.352 2.11856 34.086C1.9112 33.8118 1.75515 33.5021 1.658 33.1719C1.56552 32.8374 1.51734 32.4921 1.51472 32.145V27.3181H25.6479V25.7057C25.6479 25.3976 25.6479 25.11 25.6479 24.8636C25.6428 24.6342 25.5756 24.4105 25.4534 24.2165C25.3158 24.0324 25.1271 23.8931 24.911 23.816C24.5785 23.72 24.2334 23.6749 23.8875 23.6825H1.51472V21.8339H24.9826ZM1.94457 14.2752C1.9343 14.6672 1.96172 15.0593 2.02645 15.446C2.06234 15.7041 2.16464 15.9483 2.32325 16.1546C2.48112 16.3464 2.70295 16.4741 2.94756 16.5141C3.30696 16.5936 3.6748 16.6281 4.04266 16.6168H8.60729V11.8207H1.94457V14.2752ZM10.47 16.6168H17.1839V11.8207H10.47V16.6168ZM30.5502 13.2482H27.6231V19.554H25.6786V6.34683H27.6231V11.3996H30.5502V13.2482Z" fill="white"/>
<path d="M45.2983 6.34683C47.2531 6.34683 48.2254 7.37383 48.2254 9.50998V20.4475H35.8211V27.9137C35.8108 28.3057 35.8382 28.6978 35.903 29.0845C35.9389 29.3426 36.0412 29.5868 36.1998 29.7931C36.3621 29.9866 36.5864 30.1173 36.8343 30.1629C37.2055 30.2317 37.5827 30.2627 37.9601 30.2553H48.5222V32.0731H36.8343C34.8795 32.0731 33.9072 31.0461 33.9072 28.9099V18.64H46.3218V10.5062C46.3295 10.1146 46.3055 9.72306 46.2501 9.33539C46.2216 9.07224 46.1186 8.82278 45.9533 8.61649C45.7837 8.43398 45.5621 8.30844 45.3188 8.25704C44.955 8.18333 44.5845 8.1489 44.2135 8.15435H33.9072V6.34683H45.2983ZM61.4997 19.8518H55.2463V34.9795H53.3325V6.34683H55.2463V18.0032H61.4997V6.34683H63.4033V34.9795H61.4997V19.8518Z" fill="white"/>
<path d="M96.9932 21.5669H83.4221V25.1408H96.9932V26.9894H91.2925V33.1514H96.9932V35H67.8144V33.1309H73.0852V26.9689H67.8144V25.1203H81.4468V21.5669H67.8144V19.7183H96.9932V21.5669ZM82.1428 10.6397C81.8299 11.1595 81.4591 11.6419 81.0374 12.0775C80.627 12.5134 80.182 12.9152 79.707 13.279C78.8196 13.9577 77.8498 14.5203 76.8208 14.9531C75.7653 15.3732 74.6811 15.7164 73.5764 15.98C72.6504 16.2238 71.7054 16.3888 70.7517 16.473C69.7999 16.5654 68.8378 16.6476 67.8553 16.7092V14.8606C68.6843 14.8606 69.5235 14.7579 70.3525 14.6655C71.1975 14.5817 72.0355 14.4376 72.86 14.2342C73.8852 13.9909 74.8909 13.6717 75.869 13.279C76.8417 12.8937 77.7549 12.3716 78.5811 11.7283C79.2668 11.1963 79.8525 10.546 80.3108 9.80781C80.7791 9.03726 81.0661 8.16971 81.15 7.27113V6.34683H83.1253V7.27113C83.2141 8.16869 83.5007 9.03518 83.9645 9.80781C84.4229 10.546 85.0086 11.1963 85.6942 11.7283C86.529 12.3754 87.4529 12.8978 88.4371 13.279C89.4141 13.6746 90.42 13.994 91.446 14.2342C92.3609 14.4528 93.2919 14.597 94.2298 14.6655C95.2533 14.7579 96.1744 14.8195 97.0136 14.8606V16.7811C95.9902 16.7195 94.9667 16.6373 93.8307 16.5449C92.7946 16.4729 91.767 16.3079 90.7603 16.0519C89.6561 15.7868 88.5719 15.4436 87.5159 15.0249C86.4913 14.5898 85.5251 14.0274 84.64 13.3509C84.1375 12.9671 83.6685 12.5411 83.2379 12.0775C82.8224 11.6391 82.4553 11.157 82.1428 10.6397ZM74.9786 33.1309H89.307V26.9689H74.9786V33.1309Z" fill="white"/>
<path d="M81.2729 7.12735C81.2729 7.12735 79.5023 0.893486 86.6563 0C88.1403 4.40581 83.9748 7.18897 81.2729 7.12735Z" fill="white"/>
<path d="M79.4306 6.62411C80.4541 5.59712 78.5914 4.01555 76.7594 3.23503C76.0429 5.40199 78.2024 7.96948 79.4306 6.62411Z" fill="white"/>
</svg>
