<svg width="99" height="37" viewBox="0 0 99 37" fill="none" xmlns="http://www.w3.org/2000/svg">
<path d="M3.92709 19.4654C1.97229 19.4654 1 18.4384 1 16.292V7.34683H2.94457V11.0235H9.60729V7.34683H11.5212V11.0235H18.235V7.34683H20.1796V19.4654H3.92709ZM25.9826 22.8339C26.4021 22.8208 26.8189 22.9051 27.2005 23.0804C27.517 23.2292 27.7941 23.4509 28.0091 23.7274C28.2224 23.9978 28.3791 24.3087 28.4696 24.6414C28.5704 24.9744 28.6221 25.3204 28.6231 25.6684V30.1564H4.48999V32.1077C4.48999 32.4158 4.48999 32.6931 4.48999 32.9498C4.49366 33.1809 4.56483 33.4059 4.69469 33.5968C4.82529 33.7879 5.01646 33.9291 5.23712 33.9974C5.57016 34.0898 5.91519 34.1313 6.26058 34.1206H28.6231V35.9692H5.14501C4.72553 35.9823 4.3087 35.898 3.92709 35.7227C3.61666 35.5688 3.34136 35.352 3.11856 35.086C2.9112 34.8118 2.75515 34.5021 2.658 34.1719C2.56552 33.8374 2.51734 33.4921 2.51472 33.145V28.3181H26.6479V26.7057C26.6479 26.3976 26.6479 26.11 26.6479 25.8636C26.6428 25.6342 26.5756 25.4105 26.4534 25.2165C26.3158 25.0324 26.1271 24.8931 25.911 24.816C25.5785 24.72 25.2334 24.6749 24.8875 24.6825H2.51472V22.8339H25.9826ZM2.94457 15.2752C2.9343 15.6672 2.96172 16.0593 3.02645 16.446C3.06234 16.7041 3.16464 16.9483 3.32325 17.1546C3.48112 17.3464 3.70295 17.4741 3.94756 17.5141C4.30696 17.5936 4.6748 17.6281 5.04266 17.6168H9.60729V12.8207H2.94457V15.2752ZM11.47 17.6168H18.1839V12.8207H11.47V17.6168ZM31.5502 14.2482H28.6231V20.554H26.6786V7.34683H28.6231V12.3997H31.5502V14.2482Z" fill="#1B85AF" stroke="#1B85AF" stroke-width="0.2" stroke-miterlimit="10"/>
<path d="M46.2983 7.34683C48.2531 7.34683 49.2254 8.37383 49.2254 10.51V21.4475H36.8211V28.9137C36.8108 29.3057 36.8382 29.6978 36.903 30.0845C36.9389 30.3426 37.0412 30.5868 37.1998 30.7931C37.3621 30.9866 37.5864 31.1173 37.8343 31.1628C38.2055 31.2317 38.5827 31.2627 38.9601 31.2553H49.5222V33.0731H37.8343C35.8795 33.0731 34.9072 32.0461 34.9072 29.9099V19.64H47.3218V11.5062C47.3295 11.1146 47.3055 10.7231 47.2501 10.3354C47.2216 10.0722 47.1186 9.82278 46.9533 9.61649C46.7837 9.43398 46.5621 9.30844 46.3188 9.25704C45.955 9.18333 45.5845 9.1489 45.2135 9.15435H34.9072V7.34683H46.2983ZM62.4997 20.8518H56.2463V35.9795H54.3325V7.34683H56.2463V19.0032H62.4997V7.34683H64.4033V35.9795H62.4997V20.8518Z" fill="#1B85AF" stroke="#1B85AF" stroke-width="0.2" stroke-miterlimit="10"/>
<path d="M97.9932 22.5669H84.4221V26.1408H97.9932V27.9894H92.2925V34.1514H97.9932V36H68.8144V34.1309H74.0852V27.9689H68.8144V26.1203H82.4468V22.5669H68.8144V20.7183H97.9932V22.5669ZM83.1428 11.6397C82.8299 12.1595 82.4591 12.6419 82.0374 13.0775C81.627 13.5134 81.182 13.9152 80.707 14.279C79.8196 14.9577 78.8498 15.5203 77.8208 15.9531C76.7653 16.3732 75.6811 16.7164 74.5764 16.98C73.6504 17.2238 72.7054 17.3888 71.7517 17.473C70.7999 17.5654 69.8378 17.6476 68.8553 17.7092V15.8606C69.6843 15.8606 70.5235 15.7579 71.3525 15.6655C72.1975 15.5817 73.0355 15.4376 73.86 15.2342C74.8852 14.9909 75.8909 14.6717 76.869 14.279C77.8417 13.8937 78.7549 13.3716 79.5811 12.7283C80.2668 12.1963 80.8525 11.546 81.3108 10.8078C81.7791 10.0373 82.0661 9.16971 82.15 8.27113V7.34683H84.1253V8.27113C84.2141 9.16869 84.5007 10.0352 84.9645 10.8078C85.4229 11.546 86.0086 12.1963 86.6942 12.7283C87.529 13.3754 88.4529 13.8978 89.4371 14.279C90.4141 14.6746 91.42 14.994 92.446 15.2342C93.3609 15.4528 94.2919 15.597 95.2298 15.6655C96.2533 15.7579 97.1744 15.8195 98.0136 15.8606V17.7811C96.9902 17.7195 95.9667 17.6373 94.8307 17.5449C93.7946 17.4729 92.767 17.3079 91.7603 17.0519C90.6561 16.7868 89.5719 16.4436 88.5159 16.0249C87.4913 15.5898 86.5251 15.0274 85.64 14.3509C85.1375 13.9671 84.6685 13.5411 84.2379 13.0775C83.8224 12.6391 83.4553 12.157 83.1428 11.6397ZM75.9786 34.1309H90.307V27.9689H75.9786V34.1309Z" fill="#1B85AF" stroke="#1B85AF" stroke-width="0.2" stroke-miterlimit="10"/>
<path d="M82.2729 8.12735C82.2729 8.12735 80.5023 1.89349 87.6563 1C89.1403 5.40581 84.9748 8.18897 82.2729 8.12735Z" fill="#1B85AF" stroke="#1B85AF" stroke-width="0.2" stroke-miterlimit="10"/>
<path d="M80.4306 7.62411C81.4541 6.59712 79.5914 5.01555 77.7594 4.23503C77.0429 6.40199 79.2024 8.96948 80.4306 7.62411Z" fill="#1B85AF" stroke="#1B85AF" stroke-width="0.2" stroke-miterlimit="10"/>
</svg>
