<svg width="252" height="145" viewBox="0 0 252 145" fill="none" xmlns="http://www.w3.org/2000/svg">
<path d="M236.954 39.5315C236.954 39.5315 205.751 6.06032 133.004 34.2423C60.8397 62.2023 14.3064 37.0282 14.3064 37.0282" stroke="#1B85AF" stroke-width="5.79871" stroke-linecap="square" stroke-linejoin="round"/>
<path d="M72.4078 20.9387C73.5003 19.897 74.2743 18.5644 74.6389 17.097C75.0035 15.6297 74.9437 14.0885 74.4665 12.654C73.9893 11.2196 73.1145 9.95133 71.9445 8.99803C70.7746 8.04473 69.3581 7.44586 67.8611 7.27163C67.8722 7.1845 67.8722 7.09631 67.8611 7.00919C67.6037 5.06929 66.6529 3.28922 65.1857 1.99996C63.7184 0.710705 61.8345 0 59.8842 0C57.9339 0 56.05 0.710705 54.5828 1.99996C53.1155 3.28922 52.1648 5.06929 51.9074 7.00919C51.8977 7.08964 51.8977 7.17098 51.9074 7.25144C50.3978 7.40589 48.9641 7.99189 47.7766 8.93985C46.5891 9.88781 45.6977 11.1579 45.2083 12.5992C44.719 14.0405 44.6522 15.5925 45.0159 17.0708C45.3796 18.5491 46.1585 19.8915 47.2601 20.9387C46.3339 21.7239 45.5966 22.709 45.1031 23.8204C44.6096 24.9317 44.3728 26.1406 44.4103 27.3567C44.4479 28.5728 44.7588 29.7646 45.3198 30.8432C45.8808 31.9218 46.6775 32.8592 47.6502 33.5855C48.623 34.3117 49.7468 34.808 50.9375 35.0373C52.1283 35.2665 53.3553 35.2228 54.5268 34.9093C55.6984 34.5959 56.7842 34.0209 57.7032 33.2272C58.6222 32.4336 59.3506 31.4418 59.8339 30.326C60.3173 31.4418 61.0457 32.4336 61.9647 33.2272C62.8836 34.0209 63.9695 34.5959 65.141 34.9093C66.3126 35.2228 67.5396 35.2665 68.7303 35.0373C69.9211 34.808 71.0449 34.3117 72.0176 33.5855C72.9904 32.8592 73.7871 31.9218 74.3481 30.8432C74.9091 29.7646 75.22 28.5728 75.2575 27.3567C75.295 26.1406 75.0582 24.9317 74.5647 23.8204C74.0713 22.709 73.3339 21.7239 72.4078 20.9387Z" fill="#1B85AF"/>
<path d="M62.1473 15.912H57.5403V46.7386H62.1473V15.912Z" fill="#1B85AF"/>
<path d="M95.5437 20.9387C96.6362 19.897 97.4102 18.5644 97.7748 17.0971C98.1394 15.6297 98.0797 14.0885 97.6025 12.654C97.1252 11.2196 96.2504 9.95134 95.0805 8.99804C93.9106 8.04474 92.4941 7.44587 90.997 7.27163C90.997 7.27163 90.997 7.11013 90.997 7.00919C90.7237 5.08434 89.7674 3.32308 88.3039 2.04892C86.8404 0.774752 84.9678 0.0732422 83.0302 0.0732422C81.0926 0.0732422 79.2201 0.774752 77.7565 2.04892C76.293 3.32308 75.3368 5.08434 75.0634 7.00919C75.0634 7.00919 75.0634 7.17069 75.0634 7.25144C73.5488 7.39577 72.1076 7.97445 70.9118 8.91839C69.716 9.86233 68.8163 11.1317 68.3199 12.5748C67.8235 14.018 67.7516 15.574 68.1126 17.0571C68.4736 18.5402 69.2523 19.8877 70.3558 20.9387C69.4296 21.7239 68.6923 22.709 68.1988 23.8204C67.7053 24.9317 67.4685 26.1406 67.5061 27.3567C67.5436 28.5728 67.8544 29.7646 68.4155 30.8432C68.9765 31.9218 69.7732 32.8592 70.7459 33.5855C71.7187 34.3117 72.8425 34.808 74.0332 35.0373C75.224 35.2665 76.451 35.2228 77.6225 34.9094C78.7941 34.5959 79.8799 34.0209 80.7989 33.2272C81.7179 32.4336 82.4463 31.4418 82.9296 30.326C83.4188 31.4325 84.1496 32.4146 85.0681 33.1995C85.9865 33.9843 87.0691 34.5519 88.2357 34.8603C89.4022 35.1687 90.623 35.2099 91.8076 34.981C92.9922 34.7521 94.1103 34.2588 95.0793 33.5377C96.0483 32.8166 96.8433 31.8861 97.4055 30.8151C97.9678 29.744 98.2828 28.5599 98.3274 27.3501C98.372 26.1404 98.145 24.9361 97.6631 23.8263C97.1813 22.7166 96.457 21.7297 95.5437 20.9387Z" fill="#1B85AF"/>
<path d="M84.8006 47.0414H80.1936L80.0527 15.7706H84.6598L84.8006 47.0414Z" fill="#1B85AF"/>
<path d="M36.0944 90.3037C32.2518 90.3037 30.3406 88.2849 30.3406 84.0657V66.4822H34.163V73.7094H47.26V66.4822H51.0221V73.7094H64.2196V66.4822H68.042V90.3037H36.0944ZM79.449 96.9252C80.2736 96.8994 81.093 97.0652 81.8431 97.4097C82.4652 97.7023 83.0098 98.138 83.4324 98.6816C83.8519 99.2131 84.1598 99.8242 84.3378 100.478C84.5358 101.133 84.6374 101.813 84.6395 102.497V111.319H37.2009V115.155C37.2009 115.76 37.2009 116.305 37.2009 116.81C37.2081 117.264 37.348 117.707 37.6032 118.082C37.86 118.458 38.2357 118.735 38.6695 118.869C39.3242 119.051 40.0024 119.133 40.6813 119.112H84.6395V122.745H38.4884C37.6639 122.771 36.8445 122.605 36.0944 122.261C35.4842 121.958 34.943 121.532 34.505 121.009C34.0974 120.47 33.7907 119.861 33.5997 119.212C33.4179 118.555 33.3232 117.876 33.3181 117.194V107.705H80.7567V104.536C80.7567 103.93 80.7567 103.365 80.7567 102.881C80.7468 102.43 80.6146 101.99 80.3745 101.609C80.1039 101.247 79.733 100.973 79.3082 100.821C78.6547 100.633 77.9764 100.544 77.2964 100.559H33.3181V96.9252H79.449ZM34.163 82.0671C34.1428 82.8376 34.1967 83.6083 34.324 84.3685C34.3945 84.8758 34.5956 85.3559 34.9074 85.7614C35.2177 86.1383 35.6538 86.3894 36.1346 86.468C36.8411 86.6243 37.5642 86.6921 38.2873 86.6699H47.26V77.2422H34.163V82.0671ZM50.9215 86.6699H64.119V77.2422H50.9215V86.6699ZM90.3933 80.0483H84.6395V92.4436H80.8171V66.4822H84.6395V76.4145H90.3933V80.0483Z" fill="#1B85AF" stroke="#1B85AF" stroke-width="0.579871" stroke-miterlimit="10"/>
<path d="M119.384 66.4822C123.226 66.4822 125.138 68.501 125.138 72.7V94.1999H100.754V108.876C100.734 109.647 100.788 110.418 100.915 111.178C100.986 111.685 101.187 112.165 101.499 112.571C101.818 112.951 102.259 113.208 102.746 113.297C103.476 113.433 104.217 113.494 104.959 113.479H125.721V117.052H102.746C98.9034 117.052 96.9922 115.034 96.9922 110.835V90.6469H121.396V74.6582C121.411 73.8885 121.364 73.1189 121.255 72.3568C121.199 71.8395 120.996 71.3492 120.671 70.9437C120.338 70.5849 119.902 70.3381 119.424 70.2371C118.709 70.0922 117.981 70.0245 117.251 70.0352H96.9922V66.4822H119.384ZM151.231 93.029H138.939V122.765H135.176V66.4822H138.939V89.3952H151.231V66.4822H154.973V122.765H151.231V93.029Z" fill="#1B85AF" stroke="#1B85AF" stroke-width="0.579871" stroke-miterlimit="10"/>
<path d="M221.001 96.4004H194.324V103.426H221.001V107.059H209.795V119.172H221.001V122.806H163.644V119.132H174.005V107.019H163.644V103.385H190.441V96.4004H163.644V92.7666H221.001V96.4004ZM191.809 74.9206C191.194 75.9424 190.465 76.8906 189.636 77.7469C188.83 78.6038 187.955 79.3937 187.021 80.1089C185.277 81.443 183.37 82.5487 181.348 83.3995C179.273 84.2253 177.142 84.9 174.97 85.4182C173.15 85.8975 171.292 86.2216 169.418 86.3872C167.547 86.5689 165.656 86.7304 163.724 86.8516V83.2178C165.354 83.2178 167.004 83.0159 168.633 82.8342C170.294 82.6696 171.941 82.3862 173.562 81.9863C175.577 81.5082 177.554 80.8807 179.477 80.1089C181.389 79.3514 183.184 78.3251 184.808 77.0605C186.156 76.0148 187.307 74.7364 188.208 73.2854C189.129 71.7708 189.693 70.0654 189.858 68.2991V66.4822H193.741V68.2991C193.915 70.0634 194.479 71.7667 195.39 73.2854C196.291 74.7364 197.443 76.0148 198.79 77.0605C200.431 78.3326 202.247 79.3594 204.182 80.1089C206.102 80.8865 208.08 81.5142 210.097 81.9863C211.895 82.416 213.725 82.6996 215.569 82.8342C217.581 83.0159 219.391 83.137 221.041 83.2178V86.9929C219.029 86.8718 217.017 86.7103 214.784 86.5286C212.748 86.387 210.728 86.0627 208.749 85.5596C206.578 85.0383 204.447 84.3637 202.371 83.5408C200.357 82.6854 198.458 81.5799 196.718 80.2502C195.73 79.4956 194.808 78.6582 193.962 77.7469C193.145 76.8851 192.424 75.9376 191.809 74.9206ZM177.727 119.132H205.892V107.019H177.727V119.132Z" fill="#1B85AF" stroke="#1B85AF" stroke-width="0.579871" stroke-miterlimit="10"/>
<path d="M190.099 68.0165C190.099 68.0165 186.619 55.7626 200.681 54.0062C203.598 62.6667 195.41 68.1376 190.099 68.0165Z" fill="#1B85AF" stroke="#1B85AF" stroke-width="0.579871" stroke-miterlimit="10"/>
<path d="M186.478 67.0272C188.49 65.0084 184.828 61.8995 181.227 60.3652C179.819 64.6248 184.064 69.6718 186.478 67.0272Z" fill="#1B85AF" stroke="#1B85AF" stroke-width="0.579871" stroke-miterlimit="10"/>
<path d="M248.442 61.9399L233.554 132.112C233.167 134.845 231.81 137.346 229.733 139.155C227.656 140.965 224.999 141.962 222.248 141.964H29.1134C26.365 141.962 23.7099 140.964 21.6363 139.154C19.5627 137.344 18.21 134.843 17.8271 132.112L3 61.9399" stroke="#1B85AF" stroke-width="5.79871" stroke-linejoin="round"/>
</svg>
