<svg width="102" height="59" viewBox="0 0 102 59" fill="none" xmlns="http://www.w3.org/2000/svg">
<path d="M96.3197 16.1072C96.3197 16.1072 83.6066 2.47008 53.9672 13.9522C24.5656 25.3439 5.60657 15.0873 5.60657 15.0873" stroke="white" stroke-width="2" stroke-linecap="square" stroke-linejoin="round"/>
<path d="M29.2787 8.53102C29.7238 8.10661 30.0392 7.56366 30.1877 6.96583C30.3363 6.36799 30.3119 5.74004 30.1175 5.1556C29.9231 4.57117 29.5666 4.05446 29.09 3.66606C28.6133 3.27766 28.0362 3.03366 27.4262 2.96267C27.4308 2.92717 27.4308 2.89124 27.4262 2.85574C27.3214 2.06537 26.934 1.34012 26.3362 0.814842C25.7384 0.289561 24.9708 0 24.1762 0C23.3816 0 22.6141 0.289561 22.0163 0.814842C21.4185 1.34012 21.0311 2.06537 20.9262 2.85574C20.9223 2.88852 20.9223 2.92166 20.9262 2.95444C20.3112 3.01737 19.7271 3.25613 19.2432 3.64235C18.7594 4.02858 18.3963 4.54604 18.1969 5.13327C17.9975 5.7205 17.9703 6.35282 18.1184 6.95512C18.2666 7.55741 18.584 8.10437 19.0328 8.53102C18.6555 8.85095 18.355 9.25231 18.154 9.7051C17.9529 10.1579 17.8565 10.6504 17.8717 11.1459C17.887 11.6414 18.0137 12.127 18.2423 12.5664C18.4708 13.0059 18.7954 13.3878 19.1918 13.6837C19.5881 13.9796 20.0459 14.1818 20.5311 14.2752C21.0162 14.3686 21.5162 14.3508 21.9935 14.2231C22.4708 14.0954 22.9132 13.8611 23.2876 13.5377C23.6621 13.2144 23.9588 12.8103 24.1557 12.3557C24.3527 12.8103 24.6494 13.2144 25.0239 13.5377C25.3983 13.8611 25.8407 14.0954 26.318 14.2231C26.7953 14.3508 27.2953 14.3686 27.7804 14.2752C28.2656 14.1818 28.7234 13.9796 29.1197 13.6837C29.5161 13.3878 29.8407 13.0059 30.0692 12.5664C30.2978 12.127 30.4245 11.6414 30.4398 11.1459C30.455 10.6504 30.3586 10.1579 30.1575 9.7051C29.9565 9.25231 29.656 8.85095 29.2787 8.53102Z" fill="white"/>
<path d="M25.0984 6.4834H23.2213V19.043H25.0984V6.4834Z" fill="white"/>
<path d="M38.7049 8.53244C39.15 8.10802 39.4653 7.56507 39.6139 6.96724C39.7625 6.3694 39.7381 5.74145 39.5437 5.15702C39.3492 4.57258 38.9928 4.05587 38.5161 3.66747C38.0395 3.27907 37.4624 3.03507 36.8524 2.96408C36.8524 2.96408 36.8524 2.89828 36.8524 2.85715C36.7411 2.07292 36.3515 1.35533 35.7552 0.836196C35.1589 0.317065 34.396 0.03125 33.6065 0.03125C32.8171 0.03125 32.0542 0.317065 31.4579 0.836196C30.8616 1.35533 30.472 2.07292 30.3606 2.85715C30.3606 2.85715 30.3606 2.92295 30.3606 2.95585C29.7435 3.01466 29.1563 3.25043 28.6691 3.63502C28.182 4.01961 27.8154 4.53676 27.6131 5.12475C27.4109 5.71273 27.3816 6.34669 27.5286 6.95095C27.6757 7.5552 27.993 8.10421 28.4426 8.53244C28.0653 8.85236 27.7648 9.25372 27.5638 9.70651C27.3627 10.1593 27.2663 10.6518 27.2815 11.1473C27.2968 11.6428 27.4235 12.1284 27.6521 12.5678C27.8806 13.0073 28.2052 13.3892 28.6016 13.6851C28.9979 13.981 29.4557 14.1832 29.9409 14.2766C30.426 14.37 30.926 14.3522 31.4033 14.2245C31.8806 14.0968 32.323 13.8625 32.6974 13.5391C33.0718 13.2158 33.3686 12.8117 33.5655 12.3571C33.7648 12.8079 34.0626 13.208 34.4368 13.5278C34.811 13.8476 35.2521 14.0789 35.7274 14.2045C36.2027 14.3301 36.7 14.3469 37.1827 14.2537C37.6653 14.1604 38.1209 13.9594 38.5157 13.6656C38.9105 13.3718 39.2344 12.9927 39.4634 12.5563C39.6925 12.12 39.8209 11.6375 39.839 11.1446C39.8572 10.6518 39.7647 10.1611 39.5684 9.70894C39.3721 9.25678 39.077 8.8547 38.7049 8.53244Z" fill="white"/>
<path d="M34.3279 19.1664H32.4508L32.3934 6.42578H34.2705L34.3279 19.1664Z" fill="white"/>
<path d="M14.4836 36.7915C12.918 36.7915 12.1393 35.969 12.1393 34.25V27.0859H13.6967V30.0305H19.0328V27.0859H20.5656V30.0305H25.9426V27.0859H27.5V36.7915H14.4836ZM32.1475 39.4893C32.4835 39.4788 32.8173 39.5463 33.1229 39.6867C33.3764 39.8059 33.5983 39.9834 33.7705 40.2049C33.9414 40.4214 34.0668 40.6704 34.1393 40.9369C34.22 41.2036 34.2614 41.4807 34.2623 41.7594V45.3538H14.9344V46.9165C14.9344 47.1633 14.9344 47.3854 14.9344 47.591C14.9374 47.7761 14.9944 47.9562 15.0984 48.1092C15.203 48.2622 15.3561 48.3752 15.5328 48.4299C15.7995 48.504 16.0758 48.5372 16.3525 48.5286H34.2623V50.0091H15.459C15.1231 50.0197 14.7892 49.9521 14.4836 49.8117C14.235 49.6884 14.0145 49.5148 13.8361 49.3018C13.67 49.0822 13.545 48.8342 13.4672 48.5698C13.3931 48.3018 13.3546 48.0253 13.3525 47.7473V43.8815H32.6803V42.5902C32.6803 42.3434 32.6803 42.1131 32.6803 41.9157C32.6763 41.732 32.6224 41.5528 32.5246 41.3975C32.4144 41.2501 32.2632 41.1385 32.0902 41.0767C31.8239 40.9998 31.5475 40.9638 31.2705 40.9698H13.3525V39.4893H32.1475ZM13.6967 33.4357C13.6885 33.7496 13.7105 34.0636 13.7623 34.3733C13.791 34.58 13.873 34.7756 14 34.9409C14.1264 35.0944 14.3041 35.1967 14.5 35.2287C14.7878 35.2924 15.0824 35.32 15.377 35.311H19.0328V31.4699H13.6967V33.4357ZM20.5246 35.311H25.9016V31.4699H20.5246V35.311ZM36.6066 32.6132H34.2623V37.6633H32.7049V27.0859H34.2623V31.1327H36.6066V32.6132Z" fill="white"/>
<path d="M48.4181 27.0859C49.9836 27.0859 50.7623 27.9084 50.7623 29.6193V38.3789H40.8279V44.3585C40.8197 44.6725 40.8416 44.9865 40.8935 45.2962C40.9222 45.5029 41.0041 45.6985 41.1312 45.8637C41.2612 46.0187 41.4408 46.1233 41.6394 46.1598C41.9367 46.215 42.2387 46.2398 42.541 46.2338H51V47.6897H41.6394C40.0738 47.6897 39.2951 46.8672 39.2951 45.1564V36.9313H49.2377V30.4171C49.2439 30.1035 49.2247 29.7899 49.1803 29.4794C49.1575 29.2687 49.075 29.0689 48.9426 28.9037C48.8068 28.7575 48.6293 28.657 48.4344 28.6158C48.1431 28.5568 47.8464 28.5292 47.5492 28.5335H39.2951V27.0859H48.4181ZM61.3935 37.9019H56.3853V50.0174H54.8525V27.0859H56.3853V36.4214H61.3935V27.0859H62.9181V50.0174H61.3935V37.9019Z" fill="white"/>
<path d="M89.8197 39.2755H78.9508V42.1378H89.8197V43.6183H85.2541V48.5533H89.8197V50.0338H66.4508V48.5369H70.6721V43.6018H66.4508V42.1213H77.3688V39.2755H66.4508V37.7949H89.8197V39.2755ZM77.9262 30.524C77.6756 30.9403 77.3786 31.3266 77.041 31.6755C76.7122 32.0246 76.3559 32.3464 75.9754 32.6378C75.2647 33.1814 74.488 33.6319 73.6639 33.9785C72.8186 34.315 71.9503 34.5899 71.0656 34.801C70.3239 34.9963 69.5671 35.1284 68.8033 35.1958C68.041 35.2699 67.2705 35.3357 66.4836 35.385V33.9045C67.1475 33.9045 67.8197 33.8223 68.4836 33.7482C69.1603 33.6812 69.8314 33.5657 70.4918 33.4028C71.3128 33.208 72.1183 32.9523 72.9016 32.6378C73.6807 32.3292 74.412 31.9111 75.0738 31.3959C75.6229 30.9698 76.0919 30.449 76.459 29.8578C76.834 29.2407 77.0639 28.5459 77.1311 27.8262V27.0859H78.7131V27.8262C78.7842 28.545 79.0138 29.239 79.3852 29.8578C79.7523 30.449 80.2214 30.9698 80.7705 31.3959C81.4391 31.9142 82.179 32.3325 82.9672 32.6378C83.7497 32.9547 84.5553 33.2104 85.377 33.4028C86.1098 33.5778 86.8553 33.6934 87.6065 33.7482C88.4262 33.8223 89.1639 33.8716 89.8361 33.9045V35.4426C89.0164 35.3932 88.1967 35.3274 87.2869 35.2534C86.4571 35.1957 85.6341 35.0636 84.8279 34.8586C83.9435 34.6462 83.0752 34.3714 82.2295 34.0361C81.4089 33.6876 80.6351 33.2372 79.9262 32.6954C79.5238 32.388 79.1481 32.0468 78.8033 31.6755C78.4705 31.3244 78.1765 30.9383 77.9262 30.524ZM72.1885 48.5369H83.6639V43.6018H72.1885V48.5369Z" fill="white"/>
<path d="M77.2296 27.7121C77.2296 27.7121 75.8115 22.7195 81.541 22.0039C82.7296 25.5325 79.3935 27.7614 77.2296 27.7121Z" fill="white"/>
<path d="M75.7541 27.309C76.5737 26.4865 75.0819 25.2198 73.6147 24.5947C73.041 26.3302 74.7705 28.3865 75.7541 27.309Z" fill="white"/>
<path d="M101 25.2363L94.9344 53.8266C94.7766 54.9399 94.2238 55.9588 93.3776 56.6961C92.5314 57.4335 91.4486 57.8397 90.3279 57.8404H11.6393C10.5196 57.8395 9.4378 57.4329 8.59296 56.6955C7.74811 55.958 7.197 54.9393 7.04098 53.8266L1 25.2363" stroke="white" stroke-width="2" stroke-linejoin="round"/>
</svg>
