<svg width="700" height="428" viewBox="0 0 700 428" fill="none" xmlns="http://www.w3.org/2000/svg">
<path d="M0 63.441C0 63.441 102.812 99.5312 208.906 100.625C315 101.719 360.938 22.9687 516.25 22.9688C671.562 22.9688 700 63.441 700 63.441V428H0V63.441Z" fill="#1B85AF"/>
<path d="M197.166 46.8685C199.567 44.5368 201.268 41.5539 202.069 38.2695C202.871 34.985 202.739 31.5352 201.691 28.3243C200.642 25.1135 198.719 22.2747 196.148 20.1409C193.577 18.0071 190.463 16.6666 187.173 16.2766C187.198 16.0816 187.198 15.8841 187.173 15.6891C186.607 11.3469 184.518 7.36249 181.293 4.47665C178.069 1.59082 173.928 0 169.642 0C165.355 0 161.215 1.59082 157.99 4.47665C154.766 7.36249 152.676 11.3469 152.11 15.6891C152.089 15.8692 152.089 16.0513 152.11 16.2314C148.793 16.5771 145.642 17.8888 143.032 20.0107C140.422 22.1326 138.463 24.9754 137.387 28.2016C136.312 31.4278 136.165 34.9017 136.964 38.2106C137.764 41.5196 139.475 44.5245 141.897 46.8685C139.861 48.6261 138.241 50.8311 137.156 53.3187C136.071 55.8063 135.551 58.5122 135.633 61.2343C135.716 63.9563 136.399 66.6242 137.632 69.0384C138.865 71.4527 140.616 73.5511 142.754 75.1767C144.892 76.8023 147.362 77.9131 149.979 78.4263C152.596 78.9394 155.293 78.8415 157.867 78.1399C160.442 77.4384 162.829 76.1513 164.848 74.3747C166.868 72.5982 168.469 70.3783 169.531 67.8807C170.594 70.3783 172.194 72.5982 174.214 74.3747C176.234 76.1513 178.62 77.4384 181.195 78.1399C183.77 78.8415 186.467 78.9394 189.084 78.4263C191.701 77.9131 194.17 76.8023 196.308 75.1767C198.446 73.5511 200.197 71.4527 201.43 69.0384C202.663 66.6242 203.347 63.9563 203.429 61.2343C203.511 58.5122 202.991 55.8063 201.906 53.3187C200.822 50.8311 199.201 48.6261 197.166 46.8685Z" fill="#1B85AF"/>
<path d="M175 37.1875H164.062V107.188H175V37.1875Z" fill="#1B85AF"/>
<path d="M251.594 46.802C254.152 44.4655 255.965 41.4763 256.818 38.185C257.672 34.8937 257.532 31.4367 256.415 28.2191C255.297 25.0016 253.249 22.1569 250.51 20.0186C247.77 17.8804 244.454 16.5371 240.949 16.1462C240.949 16.1462 240.949 15.784 240.949 15.5576C240.309 11.2401 238.07 7.28951 234.643 4.43151C231.216 1.57351 226.832 0 222.295 0C217.758 0 213.374 1.57351 209.947 4.43151C206.52 7.28951 204.281 11.2401 203.641 15.5576C203.641 15.5576 203.641 15.9198 203.641 16.101C200.095 16.4247 196.721 17.7227 193.921 19.84C191.121 21.9573 189.014 24.8044 187.852 28.0415C186.69 31.2785 186.521 34.7687 187.367 38.0953C188.212 41.422 190.035 44.4445 192.619 46.802C190.45 48.5633 188.724 50.7729 187.569 53.2657C186.413 55.7585 185.859 58.47 185.947 61.1978C186.034 63.9255 186.762 66.5989 188.076 69.0182C189.389 71.4375 191.255 73.5402 193.532 75.1692C195.81 76.7982 198.441 77.9114 201.229 78.4256C204.017 78.9398 206.89 78.8417 209.633 78.1387C212.376 77.4356 214.919 76.1458 217.071 74.3656C219.222 72.5854 220.928 70.3608 222.06 67.858C223.205 70.3401 224.916 72.5428 227.067 74.3033C229.217 76.0638 231.752 77.337 234.483 78.0287C237.215 78.7204 240.073 78.8129 242.846 78.2994C245.62 77.7859 248.238 76.6794 250.507 75.062C252.776 73.4445 254.637 71.3574 255.954 68.955C257.27 66.5527 258.008 63.8965 258.112 61.1831C258.217 58.4696 257.685 55.7684 256.557 53.2791C255.429 50.7898 253.733 48.5762 251.594 46.802Z" fill="#1B85AF"/>
<path d="M227.5 107.188H216.887L216.562 35H227.176L227.5 107.188Z" fill="#1B85AF"/>
</svg>
