<svg width="81" height="81" viewBox="0 0 81 81" fill="none" xmlns="http://www.w3.org/2000/svg">
<rect width="81" height="81" rx="20" fill="white"/>
<path d="M26.5352 12C28.7433 12 30.8768 12.804 32.5381 14.2637C34.1993 15.7234 35.2758 17.7392 35.5674 19.9355C35.58 20.0342 35.58 20.1348 35.5674 20.2334C36.9972 20.3998 38.3616 20.9089 39.5488 21.7119C40.7899 20.8711 42.224 20.3527 43.7217 20.21V19.9355C44.0312 17.7562 45.1145 15.762 46.7715 14.3193C48.4285 12.8768 50.5485 12.0831 52.7422 12.083C54.936 12.083 57.0568 12.8767 58.7139 14.3193C60.3709 15.7619 61.4531 17.7563 61.7627 19.9355V20.2334C63.4577 20.4307 65.0621 21.1081 66.3867 22.1875C67.7114 23.2669 68.7019 24.703 69.2422 26.3271C69.7825 27.9512 69.8502 29.6962 69.4375 31.3574C69.0246 33.0188 68.1481 34.5286 66.9111 35.708C67.945 36.6035 68.765 37.7211 69.3105 38.9775C69.856 40.234 70.113 41.5972 70.0625 42.9668C70.012 44.3365 69.6561 45.6779 69.0195 46.8906C68.3829 48.1032 67.4818 49.1562 66.3848 49.9727C65.2877 50.7891 64.0219 51.3482 62.6807 51.6074C61.3396 51.8666 59.9574 51.8198 58.6367 51.4707C57.3159 51.1215 56.0897 50.4785 55.0498 49.5898C54.9214 49.4801 54.7966 49.3664 54.6748 49.25L54.7305 61.6025C62.9506 60.6598 71.7223 59.1105 81 56.7812V61C81 61.5987 80.9714 62.1911 80.9199 62.7764C52.704 69.6531 29.0037 69.519 11.0977 67.0928C7.2827 66.5759 3.7326 65.9537 0.458984 65.2754C0.158982 63.8978 1.06998e-08 62.4675 0 61V59.249C3.58665 60.0364 7.5517 60.7607 11.876 61.3467C15.6124 61.8529 19.6187 62.2549 23.8818 62.5088V49.7705C22.881 50.5905 21.7199 51.1919 20.4697 51.5264C19.1432 51.8812 17.7535 51.9305 16.4053 51.6709C15.0572 51.4113 13.7849 50.8495 12.6836 50.0273C11.5822 49.205 10.6801 48.1431 10.0449 46.9219C9.40976 45.7007 9.05715 44.3514 9.01465 42.9746C8.97217 41.5977 9.24112 40.229 9.7998 38.9707C10.3585 37.7124 11.1936 36.5971 12.2422 35.708C10.9949 34.5224 10.113 33.0019 9.70117 31.3281C9.2894 29.6544 9.36495 27.8975 9.91895 26.2656C10.473 24.6338 11.4818 23.1954 12.8262 22.1221C14.1707 21.0487 15.7947 20.3848 17.5039 20.21C17.493 20.1189 17.4929 20.0266 17.5039 19.9355C17.7955 17.7392 18.872 15.7234 20.5332 14.2637C22.1944 12.8042 24.3272 12.0001 26.5352 12ZM29.0977 62.7373C35.4119 62.9166 42.2299 62.7581 49.5166 62.127L49.4629 50.2031C48.5999 50.8036 47.6394 51.2536 46.6201 51.5264C45.2936 51.8812 43.9039 51.9305 42.5557 51.6709C41.4916 51.466 40.4766 51.0697 39.5537 50.5088C38.6309 51.0697 37.6159 51.466 36.5518 51.6709C35.2035 51.9305 33.8138 51.8812 32.4873 51.5264C31.2465 51.1944 30.0934 50.5995 29.0977 49.7891V62.7373Z" fill="#1B85AF"/>
</svg>
