<svg width="81" height="71" viewBox="0 0 81 71" fill="none" xmlns="http://www.w3.org/2000/svg">
<path opacity="0.3" d="M68.8501 24.8799C72.0725 24.8799 75.1629 26.16 77.4414 28.4385C79.72 30.7171 81.0001 33.8075 81.0001 37.0299V49.1799C81.0001 52.4022 79.72 55.4926 77.4414 57.7712C75.1629 60.0498 72.0725 61.3299 68.8501 61.3299V65.2422C68.8501 69.5352 63.8443 71.8801 60.5476 69.1302L51.184 61.3299H40.5001C37.2777 61.3299 34.1873 60.0498 31.9087 57.7712C29.6302 55.4926 28.3501 52.4022 28.3501 49.1799V37.0299C28.3501 33.8075 29.6302 30.7171 31.9087 28.4385C34.1873 26.16 37.2777 24.8799 40.5001 24.8799H68.8501Z" fill="#1B85AF"/>
<path opacity="0.8" d="M56.7 0.393555C59.9223 0.393555 63.0127 1.67364 65.2913 3.95221C67.5699 6.23077 68.85 9.32117 68.85 12.5435V16.5935H36.45C32.1535 16.5935 28.0329 18.3003 24.9949 21.3384C21.9568 24.3765 20.25 28.497 20.25 32.7935V48.9935C20.25 53.2217 21.87 57.0773 24.5268 59.9609L20.25 63.1685C16.9128 65.6714 12.15 63.29 12.15 59.1185V53.0435C8.92761 53.0435 5.83722 51.7634 3.55865 49.4849C1.28009 47.2063 0 44.1159 0 40.8935V12.5435C0 9.32117 1.28009 6.23077 3.55865 3.95221C5.83722 1.67364 8.92761 0.393555 12.15 0.393555H56.7Z" fill="#1B85AF"/>
</svg>
