<svg width="75" height="70" viewBox="0 0 75 70" fill="none" xmlns="http://www.w3.org/2000/svg">
<g opacity="0.8">
<path d="M38.0463 55L22.8213 33.5C20.3293 30.5577 18.7244 26.9679 18.1937 23.1487C17.663 19.3296 18.2282 15.4382 19.8236 11.9279C21.4189 8.41755 23.9788 5.43271 27.205 3.32098C30.4311 1.20925 34.1909 0.0575434 38.0463 0C43.3907 0.0528131 48.4963 2.22148 52.2449 6.03104C55.9935 9.84059 58.0796 14.9805 58.0463 20.325C58.0484 24.9873 56.4611 29.5111 53.5463 33.15L38.0463 55ZM38.0463 5C34.0259 5.04617 30.1882 6.68594 27.3758 9.55926C24.5635 12.4326 23.0063 16.3046 23.0463 20.325C23.0652 23.9942 24.3852 27.5376 26.7713 30.325L38.0463 46.3L49.6213 30C51.8215 27.2536 53.0286 23.844 53.0463 20.325C53.0863 16.3046 51.5292 12.4326 48.7168 9.55926C45.9044 6.68594 42.0667 5.04617 38.0463 5Z" fill="#1B85AF"/>
<path d="M38 22.5C40.7614 22.5 43 20.2614 43 17.5C43 14.7386 40.7614 12.5 38 12.5C35.2386 12.5 33 14.7386 33 17.5C33 20.2614 35.2386 22.5 38 22.5Z" fill="#1B85AF"/>
<path d="M68 25H63V30H68V65H8V30H13V25H8C6.67392 25 5.40215 25.5268 4.46447 26.4645C3.52678 27.4021 3 28.6739 3 30V65C3 66.3261 3.52678 67.5979 4.46447 68.5355C5.40215 69.4732 6.67392 70 8 70H68C69.3261 70 70.5979 69.4732 71.5355 68.5355C72.4732 67.5979 73 66.3261 73 65V30C73 28.6739 72.4732 27.4021 71.5355 26.4645C70.5979 25.5268 69.3261 25 68 25Z" fill="#1B85AF"/>
</g>
</svg>
