<svg width="55" height="70" viewBox="0 0 55 70" fill="none" xmlns="http://www.w3.org/2000/svg">
<g opacity="0.9">
<path d="M6.34857 70C4.58857 70 3.09048 69.3881 1.85429 68.1644C0.618096 66.9407 0 65.4591 0 63.7194V6.28055C0 4.54352 0.618096 3.06185 1.85429 1.83556C3.09048 0.611851 4.58857 0 6.34857 0H48.6554C50.4101 0 51.9069 0.611851 53.1457 1.83556C54.3819 3.05926 55 4.54222 55 6.28445V63.7194C55 65.4565 54.3819 66.9381 53.1457 68.1644C51.9095 69.3881 50.4127 70 48.6554 70H6.34857ZM6.34857 66.1111H48.6554C49.2577 66.1111 49.8117 65.8622 50.3171 65.3644C50.8226 64.8667 51.074 64.317 51.0714 63.7156V6.28445C51.0714 5.68556 50.82 5.13593 50.3171 4.63556C49.8143 4.13518 49.2591 3.8863 48.6514 3.88889H6.34857C5.74357 3.88889 5.18833 4.13778 4.68286 4.63556C4.17738 5.13333 3.92595 5.68167 3.92857 6.28055V63.7194C3.92857 64.3157 4.18 64.8641 4.68286 65.3644C5.18571 65.8648 5.73964 66.1137 6.34464 66.1111M27.5 59.2278C32.0781 59.2278 35.9936 57.6204 39.2464 54.4056C42.494 51.1856 44.1179 47.3096 44.1179 42.7778C44.1179 38.2459 42.494 34.37 39.2464 31.15C35.991 27.9352 32.0755 26.3278 27.5 26.3278C22.9245 26.3278 19.009 27.9352 15.7536 31.15C12.506 34.3726 10.8821 38.2485 10.8821 42.7778C10.8821 47.307 12.506 51.183 15.7536 54.4056C19.0064 57.6204 22.9219 59.2278 27.5 59.2278ZM27.5 55.6111C25.7976 55.6111 24.1568 55.2909 22.5775 54.6506C20.9982 54.0102 19.6114 53.0989 18.4171 51.9167L36.7321 33.7906C37.9264 34.9702 38.847 36.3417 39.4939 37.905C40.1408 39.4683 40.4643 41.0926 40.4643 42.7778C40.4643 46.3426 39.2045 49.3733 36.685 51.87C34.1655 54.3667 31.1038 55.6137 27.5 55.6111ZM11.7857 15.5556C12.8988 15.5556 13.8325 15.1822 14.5868 14.4356C15.3411 13.6889 15.7169 12.7659 15.7143 11.6667C15.7117 10.5674 15.3345 9.64444 14.5829 8.89778C13.8312 8.15111 12.8988 7.77778 11.7857 7.77778C10.6726 7.77778 9.74024 8.15111 8.98857 8.89778C8.23691 9.64444 7.85976 10.5674 7.85714 11.6667C7.85452 12.7659 8.23167 13.6902 8.98857 14.4394C9.74548 15.1887 10.6779 15.5607 11.7857 15.5556ZM23.5714 15.5556C24.6845 15.5556 25.6182 15.1822 26.3725 14.4356C27.1268 13.6889 27.5026 12.7659 27.5 11.6667C27.4974 10.5674 27.1202 9.64444 26.3686 8.89778C25.6169 8.15111 24.6845 7.77778 23.5714 7.77778C22.4583 7.77778 21.526 8.15111 20.7743 8.89778C20.0226 9.64444 19.6455 10.5674 19.6429 11.6667C19.6402 12.7659 20.0174 13.6902 20.7743 14.4394C21.5312 15.1887 22.4636 15.5607 23.5714 15.5556Z" fill="#1B85AF"/>
</g>
</svg>
