<svg width="75" height="70" viewBox="0 0 75 70" fill="none" xmlns="http://www.w3.org/2000/svg">
<g opacity="0.8">
<path d="M66.0533 70L44.774 48.7379L52.9359 40.5825L74.2153 61.8447L66.0533 70ZM12.4178 70L4.25582 61.8447L31.0736 35.0485L24.4663 28.4466L21.7457 31.1651L16.7902 26.2136V34.1748L14.0696 36.8932L2.3125 25.1456L5.03315 22.4272H13.0008L8.14245 17.5728L21.94 3.78641C23.2356 2.49191 24.6283 1.5534 26.1181 0.970878C27.608 0.388353 29.1303 0.0970916 30.6849 0.0970916C32.2396 0.0970916 33.7619 0.388353 35.2517 0.970878C36.7416 1.5534 38.1343 2.49191 39.4299 3.78641L30.4906 12.7184L35.3489 17.5728L32.6283 20.2913L39.2355 26.8932L47.9805 18.1553C47.7214 17.4434 47.5115 16.699 47.3508 15.9223C47.1902 15.1456 47.1086 14.3689 47.106 13.5922C47.106 9.77347 48.4184 6.55275 51.0431 3.9301C53.6679 1.30745 56.8899 -0.00258517 60.7092 3.82988e-06C61.6809 3.82988e-06 62.6046 0.0970914 63.4804 0.291266C64.3562 0.485441 65.2462 0.776704 66.1505 1.16505L56.5311 10.7767L63.527 17.767L73.1465 8.15534C73.5999 9.06149 73.9082 9.95081 74.0715 10.8233C74.2347 11.6958 74.315 12.6188 74.3124 13.5922C74.3124 17.411 73.0014 20.6317 70.3792 23.2544C67.757 25.877 64.5337 27.1871 60.7092 27.1845C59.9319 27.1845 59.1546 27.1197 58.3772 26.9903C57.5999 26.8608 56.855 26.6343 56.1424 26.3107L12.4178 70Z" fill="#1B85AF"/>
</g>
</svg>
