<svg width="60" height="70" viewBox="0 0 60 70" fill="none" xmlns="http://www.w3.org/2000/svg">
<g opacity="0.8">
<path d="M13.2964 33.3333H39.8892V40H13.2964V33.3333ZM19.9446 60H6.6482V6.66667H29.9169V23.3333H46.5374V33.6667L53.1856 27V20L33.241 0H6.6482C4.88499 0 3.19399 0.702379 1.94721 1.95262C0.700433 3.20286 0 4.89856 0 6.66667V60C0 61.7681 0.700433 63.4638 1.94721 64.714C3.19399 65.9643 4.88499 66.6667 6.6482 66.6667H19.9446V60ZM13.2964 53.3333H26.9252L29.9169 50.3333V46.6667H13.2964V53.3333ZM53.8504 36.6667C54.1828 36.6667 54.8476 37 55.1801 37.3333L59.5014 41.6667C60.1662 42.3333 60.1662 43.6667 59.5014 44.3333L56.1773 47.6667L49.1967 40.6667L52.5208 37.3333C52.8532 37 53.1856 36.6667 53.8504 36.6667ZM53.8504 49.6667L33.5734 70H26.5928V63L46.8698 42.6667L53.8504 49.6667Z" fill="#1B85AF"/>
</g>
</svg>
