<svg width="71" height="70" viewBox="0 0 71 70" fill="none" xmlns="http://www.w3.org/2000/svg">
<g opacity="0.9">
<path d="M12.2676 53.2504C11.6714 53.2597 11.0793 53.15 10.5258 52.9279C9.97224 52.7058 9.46837 52.3757 9.04349 51.9567C8.61861 51.5378 8.28121 51.0384 8.05094 50.4876C7.82066 49.9368 7.70211 49.3456 7.70218 48.7485C7.70225 48.1514 7.82095 47.5603 8.05136 47.0096C8.28177 46.4589 8.61929 45.9596 9.04427 45.5407C9.46925 45.1218 9.9732 44.7918 10.5268 44.5698C11.0804 44.3479 11.6725 44.2384 12.2687 44.2478C13.4489 44.2663 14.5744 44.7488 15.4023 45.5911C16.2302 46.4333 16.6942 47.5678 16.6941 48.7496C16.6939 49.9315 16.2297 51.0658 15.4015 51.9079C14.5734 52.7499 13.4478 53.2322 12.2676 53.2504ZM3.2146 69.5757V60.7557C3.2146 57.5751 5.82412 54.9906 9.00383 54.9906H15.2114C18.3911 54.9906 21.2311 57.5751 21.2311 60.7557V69.5757H3.2146ZM58.8731 52.8687C60.0652 52.8673 61.2079 52.3923 62.0506 51.5481C62.8933 50.7039 63.3671 49.5594 63.368 48.3657C63.3812 47.7663 63.2747 47.1703 63.0547 46.6127C62.8348 46.0551 62.5058 45.5471 62.0871 45.1185C61.6684 44.6899 61.1684 44.3494 60.6165 44.1169C60.0646 43.8844 59.4719 43.7646 58.8731 43.7646C58.2744 43.7646 57.6817 43.8844 57.1297 44.1169C56.5778 44.3494 56.0779 44.6899 55.6592 45.1185C55.2405 45.5471 54.9115 46.0551 54.6916 46.6127C54.4716 47.1703 54.3651 47.7663 54.3783 48.3657C54.3792 49.5594 54.8529 50.7039 55.6956 51.5481C56.5383 52.3923 57.6811 52.8673 58.8731 52.8687ZM67.9218 69.5757V60.7557C67.9218 57.5751 65.3123 54.9906 62.1304 54.9906H55.9294C52.7442 54.9906 49.9086 57.5751 49.9086 60.7557V69.5757H67.9218ZM35.5622 53.2264C33.0499 53.2264 31.0149 51.204 31.0149 48.7114C31.0149 46.2187 33.0499 44.1953 35.5622 44.1953C38.0723 44.1953 40.1073 46.2176 40.1073 48.7114C40.1073 51.2051 38.0734 53.2264 35.5622 53.2264ZM24.6118 69.5757L28.1902 59.814C29.6233 54.8276 33.797 54.9818 33.797 54.9818H37.3394C37.3394 54.9818 41.5109 54.8287 42.9462 59.814L46.5246 69.5757H24.6118ZM35.5622 38.4957V27.8153L33.7916 26.0423V36.7173H7.00491V2.75855H33.7916V20.2039L35.5622 21.9757V0.983398H5.24083V38.4947L35.5622 38.4957Z" fill="#1B85AF"/>
<path d="M58.8525 18.9972C57.6793 18.9713 56.5628 18.4864 55.7422 17.6464C54.9217 16.8064 54.4622 15.6781 54.4622 14.503C54.4622 13.328 54.9217 12.1996 55.7422 11.3596C56.5628 10.5196 57.6793 10.0347 58.8525 10.0088C59.4421 10.0084 60.0259 10.1244 60.5706 10.3503C61.1153 10.5762 61.6102 10.9074 62.0268 11.3251C62.4434 11.7428 62.7737 12.2387 62.9986 12.7844C63.2235 13.3301 63.3387 13.9149 63.3375 14.5052C63.3385 15.0953 63.2232 15.6798 62.9982 16.2252C62.7732 16.7705 62.4429 17.2661 62.0262 17.6834C61.6096 18.1007 61.1147 18.4316 60.5701 18.657C60.0255 18.8825 59.4418 18.9981 58.8525 18.9972ZM58.8525 25.6811C58.8525 25.6811 59.9416 25.8222 60.6079 24.898C61.2108 24.0536 61.2556 21.2558 61.26 20.7494H56.4407C56.4243 22.763 56.6581 24.2308 57.1387 24.9702C57.6237 25.7249 58.8525 25.6822 58.8525 25.6822V25.6811Z" fill="#1B85AF"/>
<path d="M39.2957 29.6442C39.1307 29.9155 38.874 30.4667 38.874 30.8146C38.874 31.8646 39.7206 32.7078 40.7659 32.7078H46.9888C47.6955 32.7078 48.624 32.4224 49.0205 31.8274C50.3586 29.8378 51.7731 27.7411 52.1904 27.1144V38.8963H67.8628V26.8136C67.8628 23.6538 65.3975 20.8089 62.481 20.8089C62.4886 22.2921 62.2898 24.7552 61.4225 25.8336C60.517 26.935 59.4509 26.8388 59.4509 26.8388V31.4358C59.7868 31.5731 60.0646 31.8231 60.2364 32.1431C60.4083 32.463 60.4636 32.8329 60.3928 33.1892C60.322 33.5455 60.1295 33.866 59.8484 34.0957C59.5673 34.3254 59.2152 34.45 58.8523 34.448C58.6469 34.4481 58.4433 34.4077 58.2535 34.3289C58.0636 34.2502 57.8912 34.1347 57.746 33.9891C57.6008 33.8435 57.4857 33.6707 57.4073 33.4805C57.3289 33.2902 57.2888 33.0864 57.2893 32.8807C57.2893 32.2299 57.6847 31.6721 58.2505 31.4358V26.818C58.2505 26.818 57.3198 26.8946 56.4405 26.0119C55.2663 24.7869 55.2226 21.3153 55.2248 20.7477H54.9397C53.9919 20.7466 53.0586 20.9803 52.2228 21.428C51.3871 21.8758 50.675 22.5235 50.1499 23.3136L46.4241 28.9432L40.7714 28.941L32.7888 20.9467C32.7177 20.8748 32.6331 20.8177 32.5398 20.7788C32.4465 20.7398 32.3464 20.7197 32.2454 20.7197C32.1443 20.7197 32.0442 20.7398 31.951 20.7788C31.8577 20.8177 31.773 20.8748 31.7019 20.9467C31.6302 21.0181 31.5732 21.103 31.5342 21.1965C31.4952 21.29 31.4751 21.3902 31.4749 21.4915C31.4747 21.5928 31.4944 21.6932 31.533 21.7868C31.5716 21.8805 31.6283 21.9655 31.6998 22.0372L39.2968 29.6453L39.2957 29.6442Z" fill="#1B85AF"/>
</g>
</svg>
