<svg width="85" height="74" viewBox="0 0 85 74" fill="none" xmlns="http://www.w3.org/2000/svg">
<g opacity="0.9">
<path d="M75.5714 69.3077V34.3077M10.4286 34.3077V69.3077M5 72H81M48.4286 72V46.4231C48.4286 45.352 48.8575 44.3248 49.6211 43.5675C50.3846 42.8101 51.4202 42.3846 52.5 42.3846H63.3571C64.437 42.3846 65.4725 42.8101 66.2361 43.5675C66.9996 44.3248 67.4286 45.352 67.4286 46.4231V72M64.4547 2H21.5453C17.8487 2 14.5102 4.01923 13.075 7.12548L5.72946 23.0337C3.25607 28.3863 7.36312 34.4507 13.7349 34.6442H14.0742C19.401 34.6442 23.7184 30.4072 23.7184 25.8555C23.7184 30.3988 28.0375 34.6442 33.3643 34.6442C38.6911 34.6442 43 30.7101 43 25.8555C43 30.3988 47.3174 34.6442 52.6442 34.6442C57.971 34.6442 62.2901 30.7101 62.2901 25.8555C62.2901 30.7101 66.6075 34.6442 71.9343 34.6442H72.2651C78.6369 34.4474 82.7439 28.3829 80.2705 23.0337L72.925 7.12548C71.4898 4.01923 68.1512 2 64.4547 2ZM22.6429 42.3846H36.2143C37.2941 42.3846 38.3297 42.8101 39.0932 43.5675C39.8568 44.3248 40.2857 45.352 40.2857 46.4231V61.2308H18.5714V46.4231C18.5714 45.352 19.0004 44.3248 19.7639 43.5675C20.5275 42.8101 21.563 42.3846 22.6429 42.3846Z" stroke="#1B85AF" stroke-width="3" stroke-linecap="round" stroke-linejoin="round"/>
</g>
</svg>
